# xmcd CD database file
#
# Track frame offsets:
#	150
#	8961
#	17040
#	25510
#	33686
#	42716
#	52738
#	61063
#	69700
#	79816
#	89285
#	99538
#	106836
#	115669
#	123805
#	132166
#	134953
#	144396
#	153169
#	162104
#	170800
#	180387
#	190866
#	199825
#	208964
#	219561
#	229675
#	240634
#	248454
#	257953
#	266657
#	275981
#	282164
#	289841
#	297135
#	300267
#	301212
#	302411
#	303217
#	304061
#	305401
#	306379
#	307238
#
# Disc length: 4110 seconds
#
# Revision: 1
# Processed by: cddbd v1.5.2PL0 Copyright (c) Steve Scherf et al.
# Submitted via: CDex 1.76
#
DISCID=69100c2b
DTITLE=ABRSM - Abrsm Jazz Trombone Grade 4
DYEAR=2003
DGENRE=Jazz
TTITLE0=Basin Street Blues
TTITLE1=Beale Street Blues
TTITLE2=Bessie's Blues
TTITLE3=The Twitch
TTITLE4=Walkin'
TTITLE5=Almost Like Being In Love
TTITLE6=At The Mambo Inn
TTITLE7=Hackensack
TTITLE8=It Don't Mean A Thing (If It Ain't Got That Swing)
TTITLE9=Jive Samba
TTITLE10=Homeboyz
TTITLE11=Phase Dance
TTITLE12=Sad, A Little Bit
TTITLE13=The Fourth Man
TTITLE14=Visions
TTITLE15=Tuning Note Concert B flat
TTITLE16=Basin Street Blues (-1)
TTITLE17=Beale Street Blues (-1)
TTITLE18=Bessie's Blues (-1)
TTITLE19=The Twitch (-1)
TTITLE20=Walkin' (-1)
TTITLE21=Almost Like Being In Love (-1)
TTITLE22=At The Mambo Inn (-1)
TTITLE23=Hackensack (-1)
TTITLE24=It Don't Mean A Thing (If It Ain't Got That Swing) (-1)
TTITLE25=Jive Samba (-1)
TTITLE26=Homeboyz (-1)
TTITLE27=Phase Dance (-1)
TTITLE28=Sad, A Little Bit (-1)
TTITLE29=The Fourth Man (-1)
TTITLE30=Visions (-1)
TTITLE31=Aural Test A #2
TTITLE32=Aural Test B #1
TTITLE33=Quick Study #5 by Ear
TTITLE34=Quick Study #5 by Sight
TTITLE35=Dorian on E
TTITLE36=Mixolydian on G
TTITLE37=Major Pentatonic on D
TTITLE38=Blues Scale on F
TTITLE39=Chromatic Scale on E flat
TTITLE40=A Minor Arpeggio
TTITLE41=C9 Arpeggio
TTITLE42=Cm9 Arpeggio
EXTD=YEAR: 2003
EXTT0=
EXTT1=
EXTT2=
EXTT3=
EXTT4=
EXTT5=
EXTT6=
EXTT7=
EXTT8=
EXTT9=
EXTT10=
EXTT11=
EXTT12=
EXTT13=
EXTT14=
EXTT15=
EXTT16=
EXTT17=
EXTT18=
EXTT19=
EXTT20=
EXTT21=
EXTT22=
EXTT23=
EXTT24=
EXTT25=
EXTT26=
EXTT27=
EXTT28=
EXTT29=
EXTT30=
EXTT31=
EXTT32=
EXTT33=
EXTT34=
EXTT35=
EXTT36=
EXTT37=
EXTT38=
EXTT39=
EXTT40=
EXTT41=
EXTT42=
PLAYORDER=
